<?xml version="1.0" standalone="no"?>
<!DOCTYPE svg PUBLIC "-//W3C//DTD SVG 20010904//EN"
 "http://www.w3.org/TR/2001/REC-SVG-20010904/DTD/svg10.dtd">
<svg version="1.0" xmlns="http://www.w3.org/2000/svg"
 width="512.000000pt" height="512.000000pt" viewBox="0 0 512.000000 512.000000"
 preserveAspectRatio="xMidYMid meet">
<metadata>
Created by potrace 1.14, written by Peter Selinger 2001-2017
</metadata>
<g transform="translate(0.000000,512.000000) scale(0.100000,-0.100000)"
fill="#000000" stroke="none">
<path d="M1228 5103 c-15 -10 -31 -29 -36 -43 -4 -14 -8 -323 -7 -687 l0 -662
25 -26 c24 -27 27 -27 105 -20 121 11 140 13 140 15 0 1 14 4 30 5 73 7 144
16 200 25 33 5 85 12 115 16 86 9 105 12 105 14 0 1 23 3 52 5 29 2 78 9 110
14 32 6 85 13 118 17 33 3 74 8 90 11 17 2 42 4 57 4 15 0 30 4 33 10 4 5 10
7 15 4 5 -3 53 1 107 10 54 8 121 17 148 19 28 3 50 5 50 6 0 1 18 3 40 5 22
2 86 10 143 19 57 9 106 15 110 15 4 -1 9 0 12 1 17 6 89 13 116 11 6 -1 11
-24 12 -54 l0 -52 -121 1 c-67 0 -126 -2 -131 -4 -5 -3 -23 -6 -40 -7 -33 -2
-85 -14 -101 -24 -5 -3 -16 -6 -22 -7 -21 -3 -83 -45 -83 -55 0 -6 -4 -8 -9
-4 -6 3 -15 -5 -22 -17 -7 -13 -15 -25 -18 -28 -14 -10 -52 -70 -46 -70 4 0 0
-11 -8 -24 -9 -12 -18 -38 -21 -57 -3 -19 -9 -47 -12 -64 -7 -37 -12 -3016 -5
-3030 3 -5 6 -18 7 -27 1 -10 2 -19 3 -20 2 -2 4 -16 6 -32 12 -92 109 -213
209 -260 65 -31 78 -35 156 -44 118 -15 1525 -7 1525 8 0 1 11 4 25 6 44 8
113 46 165 89 48 41 108 137 121 195 14 62 23 209 24 375 0 99 1 188 1 198 0
9 0 64 0 122 0 58 0 111 0 118 0 6 0 95 0 197 0 102 0 193 0 203 0 9 0 64 0
122 0 58 0 111 0 118 0 6 0 95 0 197 0 102 0 193 0 203 0 9 0 64 0 122 0 58 0
111 0 118 0 6 0 95 0 197 0 102 0 193 0 203 1 30 0 230 0 277 -3 152 -13 331
-22 365 -5 22 -11 47 -13 55 -18 66 -104 190 -128 183 -4 -2 -8 1 -8 7 0 8
-71 51 -90 55 -3 1 -32 9 -65 19 -41 13 -100 19 -185 21 -69 2 -129 4 -133 4
-4 1 -7 39 -6 86 l2 85 31 1 c96 3 160 -6 151 -20 -2 -5 6 -17 18 -28 42 -39
90 -56 169 -60 64 -4 84 -1 120 18 56 28 85 55 111 104 20 38 21 55 20 355 0
333 1 330 -48 390 -28 36 -76 71 -86 64 -5 -3 -9 -1 -9 5 0 5 -9 8 -20 6 -11
-2 -20 -1 -20 3 0 4 -29 6 -64 5 -98 -2 -175 -42 -209 -109 -16 -32 -17 -32
-92 -32 l-75 0 0 73 c0 99 -9 123 -73 183 -51 48 -71 50 -402 51 -290 1 -313
-1 -354 -20 -59 -26 -96 -69 -111 -127 -6 -26 -13 -52 -15 -58 -3 -8 -25 -6
-78 6 -41 10 -92 20 -114 23 -21 3 -70 13 -109 21 -94 21 -124 27 -159 31 -16
2 -60 10 -98 19 -37 9 -81 18 -97 21 -17 3 -45 7 -62 11 -18 3 -62 11 -98 19
-86 19 -120 26 -150 30 -14 2 -25 4 -25 5 0 2 -14 5 -65 13 -14 2 -41 8 -60
12 -19 4 -46 9 -60 11 -27 3 -65 12 -65 14 0 1 -13 3 -30 5 -16 3 -61 11 -99
19 -38 8 -73 13 -78 10 -4 -3 -8 -1 -8 3 0 5 -8 9 -17 10 -33 2 -98 14 -133
23 -19 5 -51 12 -70 15 -19 3 -42 8 -50 10 -8 2 -26 6 -40 9 -14 2 -41 7 -60
10 -24 4 -43 1 -62 -11z"/>
<path d="M673 4948 c-41 -11 -57 -51 -36 -88 18 -31 335 -240 364 -240 24 0
69 46 69 70 0 26 -39 63 -112 105 -9 6 -61 40 -115 76 -126 85 -131 88 -170
77z"/>
<path d="M465 4388 c-14 -3 -25 -3 -25 0 0 4 -9 -6 -20 -23 -27 -40 -25 -70 5
-93 24 -19 37 -20 218 -15 114 3 197 9 205 16 7 6 19 22 27 37 12 24 11 29 -9
55 l-23 29 -177 0 c-97 1 -187 -2 -201 -6z"/>
<path d="M985 3992 c-11 -2 -33 -9 -50 -17 -80 -36 -146 -65 -150 -65 -2 0
-43 -18 -90 -40 -47 -22 -90 -40 -94 -40 -4 0 -16 -9 -26 -20 -19 -21 -16 -70
6 -97 17 -20 65 -16 119 12 28 14 50 22 50 19 0 -4 6 -2 13 4 6 5 53 27 102
47 50 21 94 42 100 47 5 4 17 8 27 8 24 0 68 47 68 73 0 27 -28 70 -40 62 -4
-3 -10 -2 -12 3 -1 4 -12 6 -23 4z"/>
</g>
</svg>
